<?xml version="1.0" standalone="no"?>
<!DOCTYPE svg PUBLIC "-//W3C//DTD SVG 20010904//EN"
 "http://www.w3.org/TR/2001/REC-SVG-20010904/DTD/svg10.dtd">
<svg version="1.0" xmlns="http://www.w3.org/2000/svg"
 width="297.000000pt" height="170.000000pt" viewBox="0 0 297.000000 170.000000"
 preserveAspectRatio="xMidYMid meet">
<metadata>
Created by potrace 1.16, written by Peter Selinger 2001-2019
</metadata>
<g transform="translate(0.000000,170.000000) scale(0.100000,-0.100000)"
fill="#000000" stroke="none">
<path d="M1564 1685 c-18 -8 -72 -19 -120 -25 -103 -12 -146 -25 -194 -55
-107 -69 -160 -195 -146 -352 4 -37 10 -142 14 -233 8 -188 19 -225 93 -305
52 -56 96 -80 186 -101 153 -36 307 16 389 132 58 82 63 110 66 414 3 320 1
330 -96 417 -44 39 -54 53 -49 71 6 24 -7 28 -38 12 -15 -8 -19 -7 -19 5 0 18
-5 19 -32 4 -18 -9 -19 -8 -13 10 7 24 2 25 -41 6z m165 -244 c74 -73 67 -58
101 -231 13 -66 -3 -278 -24 -318 -19 -37 -69 -72 -103 -72 -15 0 -27 11 -40
38 -28 58 -68 72 -188 69 -115 -2 -147 -16 -171 -73 -17 -40 -42 -44 -91 -14
-51 31 -65 70 -74 210 -13 202 10 296 97 393 l46 52 172 5 c94 3 179 7 189 8
10 1 46 -26 86 -67z m-107 -591 c28 -35 23 -84 -13 -125 -34 -38 -53 -43 -83
-20 -11 8 -29 15 -41 15 -12 0 -30 -7 -41 -15 -30 -23 -49 -18 -83 20 -36 41
-41 90 -13 125 35 44 239 44 274 0z"/>
<path d="M1366 852 c-2 -4 2 -22 9 -39 16 -39 68 -73 110 -73 42 0 94 34 110
73 14 34 9 61 -7 33 -13 -23 -186 -24 -194 -1 -7 16 -20 20 -28 7z"/>
<path d="M1186 509 c-128 -30 -313 -194 -280 -247 22 -36 148 -132 224 -171
118 -62 211 -83 355 -83 144 0 237 21 355 83 76 39 202 135 224 171 37 60
-179 235 -314 253 -44 6 -45 6 -47 -21 -2 -39 -33 -76 -89 -104 -67 -34 -189
-36 -250 -3 -51 27 -94 77 -94 109 0 27 -15 29 -84 13z"/>
</g>
</svg>
